<svg width="84" height="84" viewBox="0 0 84 84" fill="none" xmlns="http://www.w3.org/2000/svg">
<path d="M51.0746 39.7533C50.7604 39.5525 50.3331 39.6352 50.1195 39.9304C48.8754 41.6899 46.2363 41.7844 46.0981 41.7844H46.0352C42.7804 41.7844 41.5363 44.3941 41.486 44.5003C41.4406 44.5988 41.4218 44.7063 41.4314 44.8133C41.4409 44.9203 41.4784 45.0233 41.5406 45.1133C41.6028 45.2034 41.6878 45.2775 41.7879 45.3292C41.888 45.3809 42.0001 45.4085 42.1143 45.4096C42.3782 45.4096 42.6296 45.2679 42.7427 45.0199C42.7553 44.9963 43.6098 43.2014 45.809 43.0833V46.4252C45.7211 47.1455 45.3566 47.7123 44.7157 48.1374C44.0497 48.5743 43.1574 48.7987 42.0641 48.7987C40.7571 48.7987 39.6889 48.3736 38.8972 47.5352C38.0929 46.6968 37.6908 45.5041 37.6908 43.969L37.7033 40.2847C37.7662 38.9267 38.1557 37.8521 38.8972 37.0845C39.7015 36.2461 40.7571 35.821 42.0641 35.821C43.1574 35.821 44.0497 36.0454 44.7157 36.4823C45.3818 36.9192 45.7588 37.5214 45.8216 38.3008V38.3835C45.8216 38.8322 46.2112 39.1983 46.6887 39.1983C47.1663 39.1983 47.5558 38.8322 47.5558 38.3835V38.3008C47.4302 37.1318 46.8647 36.2107 45.8467 35.514C44.8288 34.8173 43.5595 34.4748 42.0264 34.4748C40.2042 34.4748 38.7338 35.0416 37.6154 36.1634C36.5597 37.2144 36.0068 38.596 35.944 40.2965C35.944 40.4146 35.9314 40.5326 35.9314 40.6507L35.944 43.969H35.9314C35.9314 45.8465 36.4969 47.3462 37.6154 48.4681C38.7338 49.5899 40.2042 50.1567 42.0264 50.1567C43.5595 50.1567 44.8288 49.8142 45.8467 49.1175C46.7767 48.4799 47.3296 47.6415 47.5181 46.6023L47.5558 42.8944C48.6994 42.6346 50.2577 42.0442 51.238 40.6507C51.4893 40.3555 51.4013 39.954 51.0746 39.7533V39.7533ZM63.1766 1.78849H72.8154C73.2427 1.78849 73.5946 1.45785 73.5946 1.05636C73.5946 0.654861 73.2427 0.324219 72.8154 0.324219H63.1766C62.7493 0.324219 62.3974 0.654861 62.3974 1.05636C62.3974 1.45785 62.7493 1.78849 63.1766 1.78849ZM11.5389 1.78849H21.1778C21.6051 1.78849 21.9569 1.45785 21.9569 1.05636C21.9569 0.654861 21.6051 0.324219 21.1778 0.324219H11.5389C11.1116 0.324219 10.7598 0.654861 10.7598 1.05636C10.7598 1.45785 11.0991 1.78849 11.5389 1.78849Z" fill="#191717"/>
<path d="M73.3055 9.13322C73.7358 9.13322 74.0847 8.80543 74.0847 8.40108C74.0847 7.99674 73.7358 7.66895 73.3055 7.66895C72.8752 7.66895 72.5264 7.99674 72.5264 8.40108C72.5264 8.80543 72.8752 9.13322 73.3055 9.13322Z" fill="#191717"/>
<path d="M41.951 6.83048C42.3813 6.83048 42.7302 6.50269 42.7302 6.09835C42.7302 5.694 42.3813 5.36621 41.951 5.36621C41.5207 5.36621 41.1719 5.694 41.1719 6.09835C41.1719 6.50269 41.5207 6.83048 41.951 6.83048Z" fill="#191717"/>
<path d="M27.499 8.41287H27.5368C30.4649 8.41287 31.7718 6.68881 32.7646 5.08283C33.0913 4.55144 34.2978 2.78014 36.0069 2.31961C38.1181 1.74098 40.3676 2.66206 41.2473 4.46878C41.373 4.72857 41.6495 4.88208 41.9259 4.89389H42.0139C42.2904 4.88208 42.5668 4.72857 42.6925 4.46878C43.5722 2.66206 45.8217 1.74098 47.9329 2.31961C49.642 2.79195 50.8485 4.55144 51.1752 5.08283C52.168 6.70061 53.475 8.41287 56.4408 8.41287C58.2253 8.41287 60.3365 7.16115 60.9272 4.764C61.4173 2.78015 60.5125 0.985231 58.5395 0.0759651C58.1499 -0.101165 57.6849 0.0405396 57.4964 0.406608C57.3079 0.772675 57.4587 1.20959 57.8483 1.38672C59.7207 2.26056 59.5574 3.8075 59.4066 4.43335C59.105 5.66145 57.9488 6.9604 56.4282 6.9604C54.4803 6.9604 53.5504 6.03933 52.5073 4.35069C51.9921 3.52409 50.5594 1.51662 48.3602 0.914379C45.9599 0.253095 43.4214 1.04427 41.9636 2.78014C40.5059 1.04427 37.9673 0.253095 35.567 0.914379C33.3678 1.51662 31.9352 3.52409 31.4199 4.35069C30.3769 6.03933 29.4469 6.9604 27.5368 6.9604H27.5116C26.8237 6.96346 26.1542 6.75172 25.6083 6.35844C25.0624 5.96516 24.671 5.41262 24.4955 4.78761C24.3447 4.27984 24.0306 2.54397 26.1418 1.36311C26.5063 1.16236 26.6319 0.713632 26.4057 0.359373C26.353 0.277053 26.2836 0.205315 26.2013 0.148274C26.1191 0.0912325 26.0257 0.0500107 25.9264 0.0269718C25.8272 0.00393286 25.7241 -0.00046931 25.623 0.0140173C25.522 0.0285039 25.4249 0.0615947 25.3375 0.111391C22.9121 1.46939 22.5351 3.61856 22.9875 5.1773C23.5405 7.10211 25.3627 8.40106 27.499 8.41287ZM41.9762 77.3517H41.9888H41.9762Z" fill="#191717"/>
<path d="M10.3197 9.13322C10.75 9.13322 11.0988 8.80543 11.0988 8.40108C11.0988 7.99674 10.75 7.66895 10.3197 7.66895C9.88937 7.66895 9.54053 7.99674 9.54053 8.40108C9.54053 8.80543 9.88937 9.13322 10.3197 9.13322Z" fill="#191717"/>
<path d="M8.13316 1.80021C8.56347 1.80021 8.91231 1.47242 8.91231 1.06807C8.91231 0.663726 8.56347 0.335938 8.13316 0.335938C7.70284 0.335938 7.354 0.663726 7.354 1.06807C7.354 1.47242 7.70284 1.80021 8.13316 1.80021Z" fill="#191717"/>
<path d="M76.0702 1.80021C76.5005 1.80021 76.8493 1.47242 76.8493 1.06807C76.8493 0.663726 76.5005 0.335938 76.0702 0.335938C75.6399 0.335938 75.291 0.663726 75.291 1.06807C75.291 1.47242 75.6399 1.80021 76.0702 1.80021Z" fill="#191717"/>
<path d="M80.2425 48.7162C80.6728 48.7162 81.0217 48.3884 81.0217 47.9841C81.0217 47.5797 80.6728 47.252 80.2425 47.252C79.8122 47.252 79.4634 47.5797 79.4634 47.9841C79.4634 48.3884 79.8122 48.7162 80.2425 48.7162Z" fill="#191717"/>
<path d="M77.1131 65.4604C77.5434 65.4604 77.8923 65.1326 77.8923 64.7282C77.8923 64.3239 77.5434 63.9961 77.1131 63.9961C76.6828 63.9961 76.334 64.3239 76.334 64.7282C76.334 65.1326 76.6828 65.4604 77.1131 65.4604Z" fill="#191717"/>
<path d="M72.1117 67.5502C72.542 67.5502 72.8908 67.2224 72.8908 66.8181C72.8908 66.4137 72.542 66.0859 72.1117 66.0859C71.6814 66.0859 71.3325 66.4137 71.3325 66.8181C71.3325 67.2224 71.6814 67.5502 72.1117 67.5502Z" fill="#191717"/>
<path d="M25.8778 3.8077C25.8778 4.89409 26.8203 5.77974 27.9765 5.77974C29.1326 5.77974 30.0751 4.89409 30.0751 3.8077C30.0751 2.7213 29.1326 1.83566 27.9765 1.83566C27.7004 1.83409 27.4267 1.88403 27.1714 1.98258C26.916 2.08113 26.684 2.22633 26.4888 2.40976C26.2935 2.59319 26.139 2.81121 26.0341 3.05118C25.9293 3.29115 25.8761 3.54829 25.8778 3.8077V3.8077ZM27.9765 3.28812C28.2781 3.28812 28.5294 3.52429 28.5294 3.8077C28.5294 4.09111 28.2781 4.32728 27.9765 4.32728C27.6749 4.32728 27.4235 4.09111 27.4235 3.8077C27.4235 3.52429 27.6749 3.28812 27.9765 3.28812ZM56.2521 5.77974C57.4083 5.77974 58.3508 4.89409 58.3508 3.8077C58.3508 2.7213 57.4083 1.83566 56.2521 1.83566C55.096 1.83566 54.1535 2.7213 54.1535 3.8077C54.1535 4.89409 55.096 5.77974 56.2521 5.77974ZM56.2521 3.28812C56.5537 3.28812 56.8051 3.52429 56.8051 3.8077C56.8051 4.09111 56.5537 4.32728 56.2521 4.32728C55.9505 4.32728 55.6992 4.09111 55.6992 3.8077C55.6992 3.52429 55.9505 3.28812 56.2521 3.28812ZM44.0747 5.0358C43.9795 5.06863 43.8921 5.11891 43.8176 5.18373C43.7432 5.24855 43.6832 5.32662 43.6411 5.4134C43.599 5.50018 43.5757 5.59396 43.5724 5.68928C43.5692 5.7846 43.5862 5.87957 43.6223 5.96868C43.7731 6.34656 44.213 6.5355 44.6151 6.4056C44.7408 6.35837 47.7569 5.41367 50.0692 8.79095C50.22 9.0035 50.4713 9.12159 50.7227 9.12159C50.8609 9.12159 51.0117 9.08616 51.1374 9.0035C51.5018 8.79095 51.6024 8.33041 51.3762 7.99977C48.9633 4.4926 45.5451 4.52803 44.0747 5.0358V5.0358ZM39.8774 5.0358C39.7643 5.00037 38.7338 4.65792 37.3263 4.85867C36.0193 5.0358 34.1468 5.73251 32.5885 8.01158C32.3623 8.35403 32.4629 8.80276 32.8273 9.01531C32.953 9.09797 33.1038 9.1334 33.242 9.1334C33.4934 9.1334 33.7447 9.01531 33.8955 8.80276C36.1953 5.42548 39.2113 6.37018 39.3496 6.41741C39.7517 6.55911 40.1916 6.35837 40.3424 5.98049C40.4932 5.60261 40.2795 5.1775 39.8774 5.0358V5.0358ZM75.6304 7.03146L79.4131 2.9929V8.81457C79.4131 9.21606 79.7649 9.5467 80.1922 9.5467C80.6195 9.5467 80.9714 9.21606 80.9714 8.81457V1.06809C80.9712 0.920136 80.9233 0.775707 80.8338 0.653957C80.7443 0.532207 80.6176 0.438889 80.4704 0.386377C80.3231 0.333864 80.1624 0.324638 80.0095 0.359921C79.8566 0.395205 79.7187 0.473331 79.6141 0.58394L74.4742 6.07496C74.1852 6.38198 74.2229 6.84252 74.5496 7.10231C74.8512 7.37391 75.3414 7.33848 75.6304 7.03146V7.03146ZM3.87303 9.55851C4.30031 9.55851 4.65218 9.22787 4.65218 8.82637V3.00471L8.43484 7.04327C8.57383 7.17455 8.76074 7.25128 8.95769 7.25789C9.15464 7.26451 9.3469 7.20052 9.49551 7.07889C9.64412 6.95727 9.73797 6.7871 9.75804 6.60288C9.7781 6.41866 9.72288 6.23416 9.60357 6.08677L4.46368 0.58394C4.3591 0.473331 4.2212 0.395205 4.06829 0.359921C3.91537 0.324638 3.75465 0.333864 3.60744 0.386377C3.46023 0.438889 3.33349 0.532207 3.24401 0.653957C3.15454 0.775707 3.10656 0.920136 3.10645 1.06809V8.82637C3.10645 9.22787 3.44575 9.55851 3.87303 9.55851V9.55851ZM58.7404 10.2788C58.5611 10.2686 58.3836 10.3173 58.2384 10.4167C58.0931 10.516 57.9893 10.6598 57.9447 10.8233C57.9001 10.9869 57.9175 11.1599 57.9939 11.3126C58.0703 11.4654 58.2009 11.5884 58.3634 11.6604C59.5949 12.2036 60.7134 12.4162 61.7188 12.4162C63.6415 12.4162 65.1747 11.625 66.2429 10.7984C67.952 9.47585 68.8317 7.81083 68.8694 7.73998C69.0453 7.39753 68.9196 6.98422 68.5678 6.79529C67.776 6.35837 66.4062 6.08677 64.3201 7.27944C63.6062 7.69724 62.9407 8.18404 62.3345 8.7319C60.4244 10.3143 58.8284 10.2788 58.7404 10.2788V10.2788ZM63.3776 9.8183L63.4153 9.78287C64.0059 9.22787 65.6774 7.94072 66.9843 7.88168C66.6073 8.38945 66.0418 9.07435 65.2752 9.67659C64.1442 10.5504 62.9378 10.9755 61.6559 10.9519C62.1837 10.6921 62.7744 10.3143 63.3776 9.8183ZM15.7614 6.79529C15.5929 6.88737 15.468 7.03622 15.412 7.21165C15.356 7.38707 15.3731 7.57595 15.4598 7.73998C15.4975 7.81083 16.3772 9.47585 18.0863 10.7984C19.1545 11.625 20.6751 12.4162 22.6104 12.4162C23.6283 12.4162 24.7468 12.2036 25.9658 11.6604C26.3051 11.5069 26.4684 11.1645 26.3805 10.822C26.2925 10.4796 25.9658 10.2552 25.5887 10.267C25.5259 10.267 23.9173 10.3143 22.0072 8.7319C21.401 8.18404 20.7355 7.69724 20.0216 7.27944C17.9355 6.09858 16.5531 6.37018 15.7614 6.79529V6.79529ZM20.9641 9.8183C21.5547 10.3143 22.1454 10.6803 22.6858 10.9519C19.9713 10.9755 18.1742 9.02712 17.3574 7.88168C18.6643 7.94072 20.3358 9.22787 20.9264 9.78287L20.9641 9.8183Z" fill="#191717"/>
<path d="M81.1599 69.1567C80.3807 68.5426 79.5262 68.1884 78.7344 67.9876C79.036 67.775 79.3251 67.5271 79.5764 67.2555C81.4992 65.1299 81.5117 62.0006 79.6016 59.9695C79.5347 59.8971 79.453 59.8379 79.3614 59.7956C79.2698 59.7533 79.1701 59.7287 79.0682 59.7232C78.9662 59.7176 78.8642 59.7314 78.768 59.7636C78.6719 59.7957 78.5835 59.8457 78.5082 59.9105C78.4311 59.9733 78.3682 60.0501 78.3231 60.1362C78.2781 60.2222 78.2519 60.3159 78.246 60.4117C78.2402 60.5075 78.2548 60.6034 78.289 60.6937C78.3233 60.7841 78.3764 60.8671 78.4454 60.9378C79.8403 62.4257 79.8152 64.7284 78.3951 66.3108C77.239 67.5861 75.0398 67.8931 74.3863 67.964C72.4133 68.1647 70.2015 68.5898 69.0076 71.1287C68.8191 71.5184 68.706 71.9553 68.6809 72.4277C68.2527 72.2986 67.7983 72.2662 67.3543 72.3332C66.9104 72.4001 66.4895 72.5645 66.1259 72.813C65.7623 73.0615 65.4661 73.3871 65.2615 73.7633C65.057 74.1396 64.9497 74.5558 64.9485 74.9783C64.9485 75.9939 65.5517 76.8795 66.444 77.3282C66.18 77.5526 65.9287 77.8006 65.7025 78.084C64.1696 76.1423 62.1086 74.6242 59.736 73.6892C57.3633 72.7541 54.7665 72.4367 52.2181 72.7701C56.0385 71.6719 59.595 69.9597 62.8372 67.6924C67.0269 64.7475 70.4621 60.9587 72.8908 56.6041C75.4042 52.0696 76.6735 47.169 76.6735 42.0676V41.9141C76.6483 37.7693 75.6681 34.0378 74.2732 30.8258C74.7884 30.9203 75.2785 30.9557 75.7184 30.9557C78.9732 30.9557 80.4058 28.8538 80.5566 28.6058C81.2604 27.4958 81.3735 26.1496 80.9714 24.9333C80.9839 24.8979 80.9839 24.8506 80.9839 24.8034V11.4951C80.9839 11.0936 80.6321 10.7629 80.2048 10.7629C79.7775 10.7629 79.4256 11.0936 79.4256 11.4951V22.6778C78.1061 21.6033 76.1959 21.4852 75.4042 21.4852C73.871 21.497 72.9159 21.2726 72.2122 20.139C71.6215 19.1825 71.9608 18.1906 72.5515 17.6237C73.2929 16.9152 74.3486 16.8208 75.3791 17.3521C75.7561 17.5411 76.2336 17.423 76.4347 17.0687C76.6358 16.7145 76.5101 16.2658 76.1331 16.0768C74.4994 15.2266 72.6646 15.4391 71.4456 16.5964C70.862 17.1474 70.4888 17.8643 70.3843 18.6354C70.2797 19.4065 70.4496 20.1884 70.8675 20.8593C71.986 22.666 73.6825 22.9258 75.3539 22.9258H75.4168C75.9194 22.9258 77.5406 22.9967 78.4705 23.8233C79.677 24.8979 79.9911 26.5865 79.1994 27.8382C79.1994 27.8382 79.1868 27.85 79.1868 27.8618C79.124 27.9681 77.6285 30.3535 73.4563 29.1017C72.1996 26.5983 70.7418 24.4728 69.3846 22.7723L68.7688 23.2092L69.3846 22.7605L69.1333 22.4535C66.4565 18.2378 69.548 13.7505 71.1566 11.8493L72.0614 10.881C72.1853 10.7377 72.2467 10.5556 72.2332 10.3715C72.2197 10.1873 72.1323 10.0149 71.9887 9.88892C71.845 9.76297 71.6559 9.69294 71.4595 9.69297C71.263 9.693 71.0739 9.76309 70.9304 9.88908C70.9052 9.9127 70.767 10.0426 70.5533 10.267C69.1584 11.6013 63.7043 16.3248 58.4137 13.8568L58.2629 13.7623L58.1875 13.7151C53.4497 11.3179 48.7748 9.93632 44.3135 9.58206C43.7354 8.34215 42.9689 7.39746 42.0012 7.39746C41.021 7.39746 40.2544 8.35396 39.6637 9.61748C33.418 9.87727 25.6516 13.6678 25.3248 13.8214C20.009 16.3366 14.5298 11.5895 13.1349 10.2552C12.9212 10.0308 12.7704 9.90089 12.7579 9.87728C12.6143 9.75128 12.4252 9.68119 12.2288 9.68116C12.0323 9.68113 11.8432 9.75116 11.6996 9.87711C11.556 10.0031 11.4686 10.1755 11.4551 10.3597C11.4416 10.5438 11.503 10.7259 11.6269 10.8692L12.5945 11.8966C13.16 12.5578 13.8763 13.5143 14.4796 14.6598C15.9876 17.5293 16.0127 20.139 14.5675 22.4299C12.7704 24.5318 11.3127 26.74 10.1942 29.0663C5.98428 30.3535 4.47625 27.9445 4.41341 27.8382C4.41341 27.8264 4.40085 27.8264 4.40085 27.8146C3.60913 26.5629 3.9233 24.8743 5.12973 23.7997C6.05969 22.9731 7.68082 22.9022 8.1835 22.9022H8.19607C9.88004 22.9022 11.6143 22.6542 12.7327 20.8357C13.5873 19.4423 13.3611 17.7182 12.1547 16.5728C10.9357 15.4037 9.10089 15.203 7.46719 16.0532C7.37712 16.0988 7.29768 16.1609 7.23355 16.2358C7.16942 16.3107 7.12191 16.397 7.0938 16.4894C7.06569 16.5818 7.05756 16.6786 7.06989 16.7741C7.08222 16.8695 7.11475 16.9617 7.16558 17.0451C7.36665 17.3994 7.84419 17.5293 8.2212 17.3285C9.26426 16.7971 10.3199 16.8916 11.0488 17.6001C11.6394 18.1669 11.9662 19.1589 11.3881 20.1154C10.6969 21.2372 9.75437 21.4616 8.24634 21.4616H8.19607C7.50489 21.4616 5.89632 21.556 4.61448 22.3354V11.6722C4.61448 11.2707 4.26261 10.9401 3.83533 10.9401C3.40806 10.9401 3.05618 11.2707 3.05618 11.6722V23.9532C2.20163 25.3938 2.15136 27.1533 3.03105 28.5704C3.11902 28.7239 3.6594 29.5741 4.86582 30.2118C5.55701 30.5778 6.5498 30.9203 7.86933 30.9203C8.34687 30.9203 8.87469 30.873 9.4402 30.7668C8.08297 34.1913 7.40435 37.8756 7.37922 41.8905V42.0204C7.37922 49.2709 10.0937 56.3915 15.0199 62.0715C19.3807 67.102 25.3123 70.8335 31.8848 72.7347C31.1936 72.6402 30.4899 72.593 29.7861 72.593C25.174 72.593 20.9892 74.6595 18.3502 77.9541C18.138 77.6918 17.898 77.4505 17.6339 77.2338C18.4633 76.7614 19.0288 75.9112 19.0288 74.9311C19.0288 73.455 17.747 72.2505 16.1761 72.2505C15.8871 72.2505 15.6106 72.2978 15.3467 72.3686C15.309 71.9081 15.1959 71.4712 15.0199 71.0815C13.8135 68.5426 11.6143 68.1175 9.64127 67.9168C8.98779 67.8459 6.78857 67.5389 5.63241 66.2635C4.17464 64.7166 4.14951 62.4139 5.54444 60.926C5.6121 60.8547 5.66415 60.7715 5.69761 60.6813C5.73107 60.5911 5.74529 60.4955 5.73946 60.4001C5.73362 60.3047 5.70785 60.2113 5.66361 60.1253C5.61936 60.0393 5.55752 59.9623 5.48161 59.8987C5.40569 59.8351 5.31719 59.7862 5.22116 59.7548C5.12513 59.7233 5.02345 59.71 4.92193 59.7154C4.8204 59.7209 4.72102 59.7451 4.62946 59.7867C4.5379 59.8283 4.45594 59.8864 4.38828 59.9577C2.49067 61.9888 2.50323 65.1181 4.41341 67.2437C4.66475 67.5271 4.95379 67.7632 5.2554 67.9758C4.46368 68.1765 3.60913 68.5426 2.82998 69.1449C0.982632 70.5737 0.0401098 72.959 0.0149758 76.2064C-0.047859 76.5016 0.0903775 76.8087 0.366851 76.974C0.49252 77.0448 0.630757 77.0803 0.768993 77.0803C0.819261 77.0803 0.882097 77.0685 0.932364 77.0566H0.944931C0.970065 77.0566 0.982632 77.0448 1.00777 77.033C1.04547 77.0212 1.09573 77.0094 1.13344 76.9858C1.146 76.9858 1.146 76.974 1.15857 76.974C1.28424 76.9031 1.39734 76.8087 1.47274 76.6906C1.77435 76.3245 3.01848 75.864 4.04897 75.6632C8.08297 74.8366 8.92495 72.2741 8.79928 71.046C8.79021 70.9507 8.76123 70.8579 8.714 70.7731C8.66678 70.6882 8.60223 70.6129 8.52404 70.5515C8.44586 70.4901 8.35556 70.4438 8.25832 70.4152C8.16108 70.3866 8.05879 70.3762 7.9573 70.3848C7.8558 70.3933 7.75709 70.4205 7.6668 70.4649C7.5765 70.5093 7.49639 70.5699 7.43104 70.6434C7.36569 70.7169 7.31638 70.8017 7.28593 70.8931C7.25547 70.9844 7.24447 71.0806 7.25355 71.1759C7.25355 71.1877 7.26611 71.4003 7.19071 71.7191C7.00221 72.4513 6.31102 73.7148 3.72223 74.2462H3.6971C3.39549 74.3052 2.49067 74.506 1.64868 74.872C1.87489 72.7701 2.5912 71.235 3.8102 70.2785C5.68268 68.8142 8.15837 69.2275 8.1835 69.2393C8.27147 69.2511 8.34687 69.2511 8.42227 69.2393C8.83698 69.322 9.18886 69.3692 9.45277 69.3928C11.5263 69.6054 12.7956 70.0305 13.5873 71.6955C14.2031 73.0063 13.4114 74.5178 12.3432 75.2735C11.8028 75.6632 10.3576 76.4308 8.73645 75.1791C8.57668 75.0694 8.37844 75.0211 8.18208 75.0439C7.98573 75.0667 7.80601 75.159 7.6795 75.302C7.553 75.4449 7.48921 75.6278 7.50113 75.8134C7.51305 75.9989 7.59978 76.1733 7.74366 76.3009C8.47254 76.8677 9.28939 77.1984 10.1314 77.2928C9.05062 78.1194 8.32174 79.1586 7.995 79.7018C6.93937 81.414 6.08482 82.3351 4.66475 82.3469V77.2338C4.66475 76.8323 4.31288 76.5016 3.8856 76.5016C3.45832 76.5016 3.10645 76.8323 3.10645 77.2338V83.1617C3.10645 83.4569 3.29495 83.7049 3.55886 83.823C3.6971 83.9175 3.86047 83.9883 4.0364 83.9883H22.1328C22.4093 83.9883 22.6355 83.8584 22.7863 83.6577C22.8869 83.5632 22.9748 83.4451 23.0125 83.3034C23.3599 82.0359 24.1461 80.9128 25.2472 80.1112C26.3484 79.3095 27.702 78.8747 29.0949 78.8752C30.3379 78.8769 31.5526 79.2244 32.5858 79.8737C33.619 80.523 34.4245 81.4452 34.9009 82.524H33.242C32.9051 81.7477 32.3292 81.0835 31.5882 80.6165C30.8471 80.1494 29.9746 79.9009 29.0824 79.9025C27.0591 79.9025 25.2746 81.1897 24.7342 83.02C24.6211 83.4097 24.8724 83.8112 25.2746 83.9175C25.6893 84.0237 26.1166 83.7876 26.2297 83.4097C26.3754 82.9038 26.671 82.4472 27.082 82.0929C27.493 81.7387 28.0027 81.5014 28.5516 81.4086C29.1006 81.3158 29.6662 81.3714 30.1829 81.5689C30.6995 81.7663 31.1459 82.0976 31.4701 82.524H31.0177C30.5904 82.524 30.2385 82.8547 30.2385 83.2562C30.2385 83.6577 30.5904 83.9883 31.0177 83.9883H32.5885C32.6137 83.9883 32.6514 84.0001 32.6765 84.0001C32.7142 84.0001 32.7519 84.0001 32.777 83.9883H35.8937C36.3209 83.9883 36.6728 83.6577 36.6728 83.2562C36.6728 83.2208 36.6728 83.1853 36.6602 83.1499C36.6728 83.0554 36.6728 82.9492 36.6477 82.8429C35.7303 79.6427 32.6137 77.4109 29.0824 77.4109C25.6641 77.4109 22.6606 79.4892 21.6176 82.524H17.5585C17.8852 81.5439 18.325 80.6347 18.878 79.7844C18.9157 79.7372 18.9408 79.69 18.9785 79.6427C21.2783 76.2537 25.2997 74.0809 29.761 74.0809C32.4 74.0809 34.9386 74.8366 37.0875 76.2537C37.1504 76.2891 37.2132 76.3245 37.276 76.3363C37.6028 76.7024 37.9295 77.0921 38.2437 77.4936C38.3191 77.588 38.3819 77.6825 38.4573 77.777C38.3819 79.2767 39.249 80.8472 41.0461 82.4532C41.1089 82.6303 41.1718 82.7838 41.2095 82.9019V83.0554C41.2095 83.4569 41.5614 83.7876 41.9886 83.7876C42.3531 83.7876 42.6421 83.5632 42.7301 83.2444C42.7301 83.2326 42.8432 82.8783 43.0694 82.2879C44.6905 80.8 45.4948 79.3475 45.4823 77.9423C45.5828 77.8006 45.6959 77.6471 45.809 77.5054C46.1609 77.0566 46.5253 76.6197 46.9023 76.2064C49.0387 74.813 51.5395 74.0809 54.1535 74.0809C59.7835 74.0809 64.7097 77.529 66.3434 82.524H62.2843C61.7787 81.0376 60.7829 79.7409 59.4408 78.8216C58.0988 77.9024 56.4803 77.4083 54.8195 77.4109C53.0995 77.413 51.4278 77.9457 50.0611 78.927C48.6944 79.9083 47.7083 81.284 47.2542 82.8429C47.2165 82.961 47.2165 83.0791 47.2542 83.1971V83.2562C47.2542 83.6577 47.6061 83.9883 48.0333 83.9883H54.8446C55.2719 83.9883 55.6238 83.6577 55.6238 83.2562C55.6238 82.8547 55.2719 82.524 54.8446 82.524H52.369C52.9093 81.8155 53.789 81.3668 54.7692 81.3668C56.1139 81.3668 57.2826 82.217 57.6219 83.4451C57.6643 83.6021 57.7618 83.7412 57.8986 83.8397C58.0354 83.9383 58.2036 83.9906 58.376 83.9883C58.4388 83.9883 58.5016 83.9765 58.5645 83.9647C58.9792 83.8702 59.2305 83.4687 59.13 83.0791C58.8806 82.1703 58.317 81.3651 57.5276 80.7901C56.7383 80.2151 55.768 79.9029 54.7692 79.9025C52.9345 79.9025 51.3008 80.9535 50.6096 82.524H49.0387C49.5428 81.3802 50.4167 80.4143 51.537 79.7627C52.6572 79.1111 53.9671 78.8069 55.2814 78.8931C56.5957 78.9792 57.8479 79.4514 58.861 80.2428C59.8741 81.0343 60.5969 82.1049 60.927 83.3034C60.9396 83.3625 60.9773 83.4215 61.0025 83.4806C61.103 83.7758 61.392 83.9883 61.7439 83.9883H80.1796C80.6069 83.9883 80.9588 83.6577 80.9588 83.2562V83.02C80.9714 82.9492 80.9714 82.8783 80.9714 82.8075C80.9714 82.7956 80.9714 82.7838 80.9588 82.772V77.2338C80.9588 76.8323 80.6069 76.5016 80.1796 76.5016C79.7524 76.5016 79.4005 76.8323 79.4005 77.2338V82.1934C78.0935 82.0989 77.2767 81.1897 76.2713 79.5601C75.9446 79.0405 75.266 78.0604 74.2606 77.2574C74.9893 77.1021 75.6666 76.7818 76.2336 76.3245C76.3775 76.1969 76.4642 76.0226 76.4761 75.837C76.4881 75.6514 76.4243 75.4685 76.2978 75.3256C76.1713 75.1826 75.9915 75.0904 75.7952 75.0675C75.5988 75.0447 75.4006 75.093 75.2408 75.2027C73.6323 76.4544 72.1871 75.6868 71.6341 75.2972C70.5659 74.5414 69.7742 73.0181 70.39 71.7191C71.1817 70.0541 72.451 69.6172 74.5245 69.4164C74.7884 69.3928 75.1403 69.3456 75.555 69.2629C75.6304 69.2748 75.7184 69.2748 75.8063 69.2629C75.8315 69.2629 78.282 68.8378 80.1671 70.3021C81.3986 71.2586 82.1275 72.7937 82.3412 74.9075C81.4866 74.5296 80.5692 74.3289 80.2802 74.2698H80.255C77.6788 73.7384 76.9751 72.4867 76.7866 71.7546C76.7112 71.4475 76.7112 71.235 76.7237 71.2114C76.7421 71.0188 76.6782 70.8272 76.5462 70.6788C76.4142 70.5304 76.225 70.4374 76.02 70.4202C75.815 70.403 75.6111 70.463 75.4532 70.587C75.2953 70.711 75.1963 70.8889 75.178 71.0815C75.0523 72.3214 75.8943 74.872 79.9409 75.6987C80.9839 75.9112 82.3035 76.3954 82.5422 76.7614C82.5422 76.7614 82.5422 76.7732 82.5548 76.7732C82.5925 76.8205 82.6302 76.8677 82.6679 76.9031C82.6805 76.9149 82.693 76.9149 82.7056 76.9268C82.7433 76.9504 82.781 76.9858 82.8187 76.9976C82.8313 77.0094 82.8564 77.0212 82.869 77.0212C82.9067 77.0448 82.9444 77.0566 82.9821 77.0685C82.9946 77.0685 83.0198 77.0803 83.0323 77.0803C83.0826 77.0921 83.1454 77.1039 83.2083 77.1039C83.2585 77.1039 83.2962 77.1039 83.3465 77.0921C83.3591 77.0921 83.3716 77.0921 83.3842 77.0803C83.4219 77.0685 83.4596 77.0567 83.5099 77.0448H83.5225C83.5602 77.033 83.5853 77.0094 83.623 76.9976L83.6356 76.9858C83.6607 76.974 83.6858 76.9504 83.6984 76.9386C83.711 76.9268 83.7361 76.9149 83.7487 76.8913L83.7989 76.8441C83.8115 76.8205 83.8366 76.8087 83.8492 76.785C83.8618 76.7614 83.8743 76.7496 83.8869 76.726C83.8995 76.7024 83.912 76.6906 83.9246 76.667C83.9372 76.6433 83.9372 76.6197 83.9497 76.5961C83.9623 76.5725 83.9623 76.5489 83.9749 76.5253C83.9749 76.5016 83.9874 76.478 83.9874 76.4662C83.9874 76.4426 84 76.419 84 76.3835V76.3717C83.9874 73.0299 83.0323 70.6091 81.1599 69.1567V69.1567ZM15.9499 82.5122H7.76879C8.45998 81.851 8.95009 81.0598 9.3271 80.4457C9.65384 79.9143 10.8603 78.143 12.5694 77.6825C14.5801 77.1275 16.4651 77.777 17.3951 79.2767C16.7793 80.2804 16.2892 81.3668 15.9499 82.5122ZM16.1635 76.171C15.4472 76.171 14.8691 75.6278 14.8691 74.9547C14.8691 74.2816 15.4472 73.7384 16.1635 73.7384C16.8798 73.7384 17.4579 74.2816 17.4579 74.9547C17.4579 75.6278 16.8673 76.171 16.1635 76.171ZM62.234 66.9484L62.3471 67.0783L62.234 66.9484ZM62.2592 66.2163C54.92 65.4133 49.6168 68.3773 46.4499 70.9988C45.0801 72.1324 43.9994 73.3015 43.1825 74.2934C43.0317 74.199 42.8935 74.1045 42.7678 74.0454V71.9671C48.712 66.358 54.6184 64.6812 58.5393 64.2679C61.1407 63.9963 63.2394 64.2207 64.4961 64.445C63.7825 65.0703 63.0359 65.6615 62.2592 66.2163V66.2163ZM71.4707 55.9192C70.7167 57.2772 69.8496 58.5761 68.8945 59.8278C67.9017 59.5326 66.6576 59.261 65.1621 59.1311C68.4924 55.1634 70.6036 50.4282 71.2822 45.4331C72.363 45.315 73.8585 44.8781 75.0021 44.1814C74.7004 48.279 73.5192 52.2231 71.4707 55.9192ZM66.18 42.7407L67.0849 42.7053C67.2323 43.3271 67.557 43.8996 68.0241 44.3613C68.4912 44.8231 69.0831 45.1568 69.7365 45.3268C69.0327 50.3809 66.7958 55.1516 63.2268 59.0485C61.5051 59.0485 59.507 59.2374 57.2449 59.6979C62.5231 55.6594 65.9664 49.5779 66.18 42.7407V42.7407ZM51.4139 61.3984C50.9112 61.5873 50.5593 61.7408 50.3834 61.8117C48.2973 62.5911 46.0603 63.0988 43.7229 63.2642L64.5715 43.6736C63.9431 51.5618 58.7153 58.2455 51.4139 61.3984V61.3984ZM75.0775 41.9496C75.0523 42.6108 73.1296 43.6854 71.433 43.9452C71.1943 43.9806 70.9555 44.0043 70.7293 44.0043C70.1465 44.0027 69.5881 43.7845 69.176 43.3973C68.764 43.0101 68.5317 42.4853 68.5301 41.9377C68.5317 41.3901 68.764 40.8654 69.176 40.4782C69.5881 40.091 70.1465 39.8728 70.7293 39.8712C70.9555 39.8712 71.1943 39.8948 71.433 39.9303C73.1296 40.1901 75.0398 41.2646 75.0775 41.9141V41.9496ZM67.8012 23.2683L68.1279 23.6816C70.9806 27.2596 74.3234 32.7979 74.9644 39.6941C73.8333 39.0092 72.3504 38.5723 71.2822 38.4542C70.4779 32.479 67.6504 27.0825 63.4656 22.914C63.6415 22.5716 63.7421 22.1819 63.7421 21.7804C63.7421 21.2372 63.5661 20.7294 63.2771 20.3161L66.8461 16.4901C66.1675 18.9227 66.4942 21.2254 67.8012 23.2683V23.2683ZM57.3832 14.9904L57.5465 15.0967L57.6345 15.1439C58.8786 15.7344 60.2107 16.0296 61.5931 16.0296C63.0509 16.0296 64.5715 15.6989 66.1046 15.0377L62.0832 19.3478C61.7188 19.1825 61.3166 19.0998 60.8768 19.0998C60.3113 19.0998 59.796 19.2533 59.3562 19.5131C55.3976 16.7971 50.7101 14.9904 45.6079 14.4C45.4823 13.538 45.2309 12.3099 44.8539 11.1054C48.8879 11.5305 53.0978 12.8294 57.3832 14.9904V14.9904ZM62.1837 21.7804C62.1837 22.3118 61.8067 22.7723 61.2915 22.9376C61.1658 22.9731 61.0276 22.9967 60.8894 22.9967H60.7637C60.1856 22.9494 59.7206 22.5361 59.6201 22.0166C59.6075 21.9457 59.595 21.863 59.595 21.7922C59.595 21.7095 59.6075 21.6387 59.6201 21.556C59.7332 21.0246 60.2107 20.6113 60.8014 20.5759H60.9648C61.5428 20.6113 62.0329 21.001 62.1586 21.5206C62.1712 21.5915 62.1837 21.6505 62.1837 21.7213C62.1712 21.7332 62.1837 21.7568 62.1837 21.7804ZM45.6708 15.8879C50.3457 16.4665 54.6687 18.1433 58.3257 20.6231C58.1372 20.9774 58.0366 21.3671 58.0366 21.7922C58.0366 22.3236 58.2 22.8077 58.4891 23.2329L52.2307 29.9402C51.9417 30.2472 51.9794 30.7077 52.3061 30.9675C52.4636 31.0941 52.6677 31.1575 52.8745 31.1443C53.0812 31.131 53.2742 31.0421 53.412 30.8967L59.6578 24.2012C60.0975 24.4056 60.5866 24.4979 61.0762 24.4689C61.5658 24.4399 62.0388 24.2905 62.4477 24.0358C66.3434 27.9563 68.9699 32.9868 69.7491 38.5605C68.4044 38.9147 67.3613 39.9539 67.0849 41.2528L66.1926 41.2883C66.0041 35.8917 63.7798 30.7431 59.8966 26.74C59.7569 26.6027 59.5655 26.5221 59.3635 26.5156C59.1614 26.5091 58.9646 26.5771 58.8152 26.7052C58.6659 26.8332 58.5757 27.0111 58.5641 27.2007C58.5524 27.3904 58.6202 27.5768 58.753 27.7201C62.1712 31.2391 64.207 35.7028 64.5966 40.4262L56.2396 32.5971C56.0922 32.4722 55.8995 32.4053 55.7012 32.4101C55.5028 32.4149 55.314 32.4911 55.1737 32.6229C55.0334 32.7547 54.9523 32.9322 54.9472 33.1185C54.9421 33.3049 55.0134 33.486 55.1462 33.6245L64.1191 42.0558L42.0012 62.839L19.8833 42.0558L28.7808 33.6953C28.9136 33.5569 28.9849 33.3758 28.9798 33.1894C28.9747 33.003 28.8936 32.8256 28.7533 32.6938C28.613 32.5619 28.4242 32.4857 28.2258 32.4809C28.0275 32.4761 27.8348 32.5431 27.6874 32.668L19.4309 40.4262C19.8576 35.2085 22.3189 30.3224 26.3428 26.7046L30.2385 30.8849C30.3893 31.0502 30.603 31.1328 30.8292 31.1328C31.0051 31.1328 31.1936 31.0738 31.3444 30.9557C31.6712 30.6841 31.6963 30.2236 31.4198 29.9283L27.5115 25.7363C31.0302 22.9731 35.4412 21.19 40.2795 20.8475L33.6442 27.0234C33.5363 27.1256 33.463 27.2555 33.4337 27.3968C33.4044 27.538 33.4204 27.6843 33.4796 27.8171C33.5388 27.9498 33.6385 28.0631 33.7663 28.1425C33.894 28.222 34.0439 28.264 34.1971 28.2633C34.3982 28.2633 34.5867 28.1925 34.7501 28.0508L42.0389 21.2726L49.1141 27.9209C49.2614 28.0457 49.4542 28.1127 49.6525 28.1079C49.8509 28.1031 50.0397 28.0269 50.18 27.8951C50.3203 27.7632 50.4013 27.5858 50.4065 27.3995C50.4116 27.2131 50.3403 27.032 50.2074 26.8935L43.7731 20.8475C47.7569 21.1309 51.5521 22.3826 54.8572 24.52C55.2091 24.7444 55.6992 24.6617 55.938 24.3311C56.1767 24.0004 56.0888 23.5399 55.7369 23.3155C51.9282 20.8494 47.4415 19.4714 42.8181 19.3478V18.8282C43.549 18.6568 44.2097 18.2862 44.7172 17.7631C45.2248 17.2399 45.5565 16.5876 45.6708 15.8879V15.8879ZM22.9623 24.6617C23.4021 24.6617 23.8168 24.5672 24.1812 24.4019L25.2997 25.6064C20.7152 29.7063 18.0258 35.3329 17.8098 41.2765L17.1814 41.241C17.0352 40.5647 16.6811 39.9435 16.1628 39.4544C15.6446 38.9654 14.9851 38.6299 14.2659 38.4896C15.0325 33.0222 17.5962 28.0862 21.3662 24.213C21.8312 24.4964 22.3716 24.6617 22.9623 24.6617V24.6617ZM21.6679 21.9929C21.6679 21.9339 21.6679 21.8867 21.6804 21.8276C21.6804 21.7922 21.693 21.7686 21.693 21.7332C21.8061 21.2136 22.2836 20.8121 22.8617 20.7767H22.9497C23.5403 20.7767 24.043 21.1545 24.1938 21.6741C24.2189 21.7804 24.2441 21.8867 24.2441 21.9929C24.2441 22.0756 24.2315 22.1583 24.2189 22.2409C24.1058 22.7605 23.6283 23.162 23.0502 23.1974H22.9497C22.6107 23.1943 22.2866 23.0665 22.0469 22.8412C21.8072 22.616 21.6711 22.3114 21.6679 21.9929V21.9929ZM17.1689 42.7053L17.8098 42.7407C18.0234 49.5897 21.4794 55.683 26.77 59.7216C24.4954 59.2492 22.4973 59.0603 20.763 59.0485C17.2325 55.1831 14.975 50.4359 14.2659 45.3859C14.9729 45.2488 15.6228 44.923 16.1377 44.4475C16.6527 43.9721 17.0107 43.3672 17.1689 42.7053V42.7053ZM19.4184 43.6736L40.267 63.2642C29.1578 62.473 20.2604 54.1124 19.4184 43.6736V43.6736ZM39.8648 14.2701C40.2041 12.0619 41.3603 9.10971 41.9635 8.87354C42.6547 9.12152 43.7229 12.18 44.0496 14.2583C44.1125 14.6716 44.1502 15.0495 44.1502 15.3565C44.1502 15.9046 43.9185 16.4302 43.506 16.8177C43.0936 17.2053 42.5342 17.423 41.9509 17.423C41.3677 17.423 40.8083 17.2053 40.3959 16.8177C39.9834 16.4302 39.7517 15.9046 39.7517 15.3565C39.7643 15.0377 39.802 14.6716 39.8648 14.2701V14.2701ZM41.2221 18.8164V19.3242C35.6172 19.4895 30.4899 21.4616 26.4684 24.6263L25.3625 23.4336C25.6516 23.0203 25.8275 22.5125 25.8275 21.9811C25.8275 21.5324 25.7018 21.1073 25.5008 20.7412C29.1829 18.2024 33.5436 16.4901 38.2814 15.8879C38.3877 16.6023 38.7279 17.268 39.2548 17.7927C39.7817 18.3174 40.4692 18.6752 41.2221 18.8164V18.8164ZM22.0323 16.0296C23.4147 16.0296 24.7468 15.7344 26.0035 15.1439C26.0789 15.1085 33.2546 11.6013 39.0605 11.129C38.6835 12.3217 38.4322 13.5616 38.3065 14.4118C33.1415 15.014 28.3786 16.8916 24.3949 19.6784C23.9676 19.4423 23.4901 19.3124 22.9623 19.3124C22.5224 19.3124 22.1077 19.4068 21.7433 19.5722L17.5208 15.0495C19.0665 15.6989 20.5745 16.0296 22.0323 16.0296V16.0296ZM15.7614 23.3391L15.8242 23.2565C17.1312 21.2254 17.4579 18.9109 16.8044 16.4783L20.5745 20.5287C20.3138 20.9027 20.1575 21.3325 20.1202 21.7783C20.0828 22.2241 20.1656 22.6715 20.3609 23.0793C16.1506 27.3299 13.4689 32.7167 12.695 38.4778C11.5766 38.6431 10.0937 39.0919 8.97522 39.765C9.41506 33.53 11.6394 28.1334 15.7614 23.3391V23.3391ZM8.91239 41.9259C8.93752 41.241 10.9608 40.2963 12.5568 39.9893C12.9087 39.9185 13.2354 39.883 13.5119 39.883C13.7255 39.883 13.914 39.9067 14.1151 39.9657C15.0325 40.2137 15.7111 41.0049 15.7111 41.9496C15.7104 42.4974 15.4785 43.0227 15.0662 43.4101C14.654 43.7975 14.095 44.0154 13.5119 44.0161C13.2229 44.0161 12.8961 43.9806 12.5568 43.9098C10.9608 43.5909 8.93752 42.6463 8.91239 41.9614V41.9259V41.9259ZM8.98779 44.0987C10.1062 44.7836 11.6017 45.2324 12.7076 45.3977C13.3737 50.4045 15.4849 55.1516 18.8277 59.1193C17.3323 59.2492 16.0881 59.509 15.0828 59.8042C11.476 55.1516 9.38993 49.7787 8.98779 44.0987ZM16.2012 61.174C16.1635 61.1268 16.1258 61.0914 16.0881 61.0441C19.8708 60.064 24.0053 60.5836 26.9083 61.2331C30.4145 62.0242 32.9781 63.1697 33.0033 63.1815L33.0158 63.1579C35.7931 64.197 38.8218 64.7757 41.9886 64.7757C45.1429 64.7757 48.159 64.2088 50.9237 63.1697L50.9991 63.1343C51.3259 63.0044 51.6652 62.8745 51.9794 62.7328C53.0476 62.3195 54.8446 61.7054 57.0062 61.2213C59.9343 60.56 64.0814 60.0404 67.864 61.0323C67.2105 61.7881 66.5319 62.5084 65.803 63.2051C64.7474 62.9335 62.0581 62.4139 58.4262 62.78C54.4802 63.1815 48.6743 64.7639 42.7427 69.9124V68.6253C42.7427 68.2238 42.3908 67.8931 41.9635 67.8931C41.5362 67.8931 41.1844 68.2238 41.1844 68.6253V69.8416C35.2904 64.752 29.5096 63.1815 25.5887 62.78C21.8689 62.4021 19.1419 62.9689 18.1491 63.2287C17.4712 62.5682 16.8214 61.8828 16.2012 61.174V61.174ZM19.5063 64.4568C20.763 64.2206 22.8869 63.9845 25.5385 64.2679C32.5131 65 37.8667 68.7434 41.2221 71.8845V74.0218C41.1089 74.0809 40.9833 74.1517 40.845 74.2462C40.0282 73.2661 38.96 72.1206 37.6153 71.0106C34.4485 68.3773 29.1201 65.4015 21.7558 66.2281V66.2399C20.9767 65.6731 20.2227 65.0827 19.5063 64.4568ZM39.0228 76.0293C37.5525 74.258 35.9439 72.9236 34.3354 71.9199L34.3479 71.8845C34.3102 71.8726 34.2725 71.8608 34.2348 71.8608C31.5581 70.2194 28.8687 69.4991 26.7072 69.2039C25.6893 68.7079 24.6839 68.1529 23.7163 67.5507C28.454 67.4208 32.7519 68.9323 36.5471 72.0616C37.6939 73.0093 38.7379 74.0615 39.6637 75.2027C39.425 75.4507 39.2113 75.7223 39.0228 76.0293V76.0293ZM42.7804 80.4575C42.5918 80.6701 42.3908 80.8826 42.1646 81.0952C42.1143 81.1424 42.0515 81.2015 41.9886 81.2487L41.9761 81.2605L41.9635 81.2723V81.2487C41.9384 81.2251 41.9007 81.2015 41.8755 81.166C41.6242 80.9417 41.4106 80.7173 41.2095 80.493C40.2921 79.4656 39.89 78.5091 40.0282 77.6353C40.0408 77.5644 40.0533 77.4936 40.0785 77.4227C40.179 77.0448 40.3675 76.7142 40.5937 76.4308C40.7822 76.1946 40.9958 75.9939 41.2095 75.8167C41.398 75.6632 41.5865 75.5333 41.7499 75.427C41.8253 75.3798 41.8881 75.3444 41.9509 75.309C41.9509 75.309 41.9635 75.309 41.9635 75.2972H41.9761C42.064 75.3444 42.152 75.4034 42.2651 75.4743C42.4159 75.5688 42.5918 75.6986 42.7678 75.8404C42.994 76.0293 43.2202 76.2537 43.4087 76.5016C43.6349 76.8087 43.8234 77.1511 43.8988 77.5408C43.8988 77.5644 43.9114 77.5998 43.9239 77.6235C44.0622 78.4855 43.6726 79.4302 42.7804 80.4575V80.4575ZM45.8467 75.1318C45.8216 75.1555 45.7964 75.1791 45.7839 75.2027C45.4948 75.5097 45.2309 75.8167 44.9921 76.112C44.8036 75.8049 44.59 75.5215 44.3638 75.2735C45.1429 74.317 46.1986 73.1716 47.5307 72.0734C51.3008 68.9559 55.5861 67.4444 60.2861 67.5507C59.3059 68.1529 58.3006 68.7197 57.2701 69.2157C51.8914 69.9833 48.2093 72.6048 45.8467 75.1318V75.1318ZM67.776 73.7384C68.4924 73.7384 69.0704 74.2816 69.0704 74.9547C69.0704 75.6278 68.4924 76.171 67.776 76.171C67.0597 76.171 66.4816 75.6278 66.4816 74.9547C66.4816 74.2934 67.0597 73.7384 67.776 73.7384ZM71.6969 77.529C73.406 78.0013 74.6125 79.7608 74.9392 80.2922C75.3414 80.9535 75.8817 81.8273 76.6735 82.5122H67.9897C67.6629 81.4022 67.198 80.3513 66.6073 79.3829C67.5624 77.777 69.6988 76.974 71.6969 77.529V77.529Z" fill="#191717"/>
<path d="M5.48176 26.2324C5.48176 27.425 6.51225 28.4051 7.79408 28.4051C9.07591 28.4051 10.1064 27.4368 10.1064 26.2324C10.1064 25.0397 9.07591 24.0596 7.79408 24.0596C6.51225 24.0596 5.48176 25.0397 5.48176 26.2324ZM8.5481 26.2324C8.5481 26.622 8.20879 26.9409 7.79408 26.9409C7.37937 26.9409 7.04006 26.622 7.04006 26.2324C7.04006 25.8427 7.37937 25.5238 7.79408 25.5238C8.20879 25.5238 8.5481 25.8427 8.5481 26.2324ZM78.257 26.2324C78.257 25.0397 77.2266 24.0596 75.9447 24.0596C74.6755 24.0596 73.6324 25.0279 73.6324 26.2324C73.6324 27.425 74.6629 28.4051 75.9447 28.4051C77.2266 28.4051 78.257 27.4368 78.257 26.2324ZM75.1907 26.2324C75.1907 25.8427 75.53 25.5238 75.9447 25.5238C76.3594 25.5238 76.6987 25.8427 76.6987 26.2324C76.6987 26.622 76.3594 26.9409 75.9447 26.9409C75.53 26.9527 75.1907 26.6339 75.1907 26.2324ZM80.4814 31.6407C80.1924 31.5344 79.853 31.5935 79.6268 31.806C78.6089 32.7862 76.9375 32.7507 76.9124 32.7507H76.8872C76.4725 32.7507 76.1332 33.0578 76.1081 33.4474C76.0955 33.8489 76.4223 34.1914 76.8495 34.2032C76.9249 34.2032 78.1565 34.2386 79.4132 33.6954V45.6103C79.4132 46.0118 79.7651 46.3425 80.1924 46.3425C80.6196 46.3425 80.9715 46.0118 80.9715 45.6103V32.3138C80.9589 32.0186 80.7704 31.747 80.4814 31.6407V31.6407ZM3.73495 46.3425C4.16223 46.3425 4.51411 46.0118 4.51411 45.6103V33.6954C5.7708 34.2386 7.00236 34.2032 7.07777 34.2032C7.50504 34.1914 7.84435 33.8489 7.81922 33.4474C7.80665 33.0459 7.44221 32.7271 7.01493 32.7507C7.00236 32.7507 5.31839 32.7862 4.30047 31.806C4.19066 31.7032 4.05128 31.6328 3.89946 31.6035C3.74765 31.5741 3.59001 31.587 3.44591 31.6407C3.15687 31.747 2.96837 32.0186 2.96837 32.3138V45.6221C2.96667 45.7172 2.98534 45.8116 3.02326 45.8997C3.06118 45.9878 3.11758 46.0678 3.18911 46.1351C3.26063 46.2023 3.34582 46.2553 3.43959 46.2909C3.53337 46.3265 3.63382 46.3441 3.73495 46.3425V46.3425ZM81.0972 58.4936C81.0972 58.0921 80.7453 57.7614 80.318 57.7614H75.2912C74.864 57.7614 74.5121 58.0921 74.5121 58.4936C74.5121 58.8951 74.864 59.2257 75.2912 59.2257H80.318C80.7453 59.2257 81.0972 58.9069 81.0972 58.4936ZM75.8819 61.2922C76.3092 61.2922 76.661 60.9616 76.661 60.5601C76.661 60.1586 76.3092 59.8279 75.8819 59.8279H73.9466C73.5193 59.8279 73.1674 60.1586 73.1674 60.5601C73.1674 60.9616 73.5193 61.2922 73.9466 61.2922H75.8819ZM77.7669 62.6384C77.7669 62.2369 77.4151 61.9063 76.9878 61.9063H72.1872C71.7599 61.9063 71.4081 62.2369 71.4081 62.6384C71.4081 63.0399 71.7599 63.3705 72.1872 63.3705H76.9878C77.4151 63.3705 77.7669 63.0517 77.7669 62.6384ZM74.7257 64.7285C74.7257 64.327 74.3739 63.9964 73.9466 63.9964H70.1891C69.7618 63.9964 69.4099 64.327 69.4099 64.7285C69.4099 65.13 69.7618 65.4607 70.1891 65.4607H73.9466C74.3739 65.4607 74.7257 65.13 74.7257 64.7285ZM67.7511 66.0865C67.3238 66.0865 66.9719 66.4172 66.9719 66.8187C66.9719 67.2202 67.3238 67.5508 67.7511 67.5508H69.8874C70.3147 67.5508 70.6666 67.2202 70.6666 66.8187C70.6666 66.4172 70.3147 66.0865 69.8874 66.0865H67.7511ZM80.318 53.593H77.5156C77.0883 53.593 76.7364 53.9236 76.7364 54.3251C76.7364 54.7266 77.0883 55.0573 77.5156 55.0573H80.318C80.7453 55.0573 81.0972 54.7266 81.0972 54.3251C81.0972 53.9236 80.7453 53.593 80.318 53.593ZM80.318 55.6831H76.4097C75.9824 55.6831 75.6305 56.0138 75.6305 56.4153C75.6305 56.8167 75.9824 57.1474 76.4097 57.1474H80.318C80.7453 57.1474 81.0972 56.8167 81.0972 56.4153C81.0972 56.0138 80.7453 55.6831 80.318 55.6831ZM80.318 49.4245H79.0739C78.6466 49.4245 78.2947 49.7552 78.2947 50.1567C78.2947 50.5582 78.6466 50.8888 79.0739 50.8888H80.318C80.7453 50.8888 81.0972 50.5582 81.0972 50.1567C81.0972 49.7552 80.7453 49.4245 80.318 49.4245ZM80.318 51.5147H78.4079C77.9806 51.5147 77.6287 51.8453 77.6287 52.2468C77.6287 52.6483 77.9806 52.9789 78.4079 52.9789H80.318C80.7453 52.9789 81.0972 52.6483 81.0972 52.2468C81.0972 51.8453 80.7453 51.5147 80.318 51.5147Z" fill="#191717"/>
<path d="M3.70982 48.7504C4.14013 48.7504 4.48897 48.4226 4.48897 48.0183C4.48897 47.6139 4.14013 47.2861 3.70982 47.2861C3.2795 47.2861 2.93066 47.6139 2.93066 48.0183C2.93066 48.4226 3.2795 48.7504 3.70982 48.7504Z" fill="#191717"/>
<path d="M6.85142 65.4838C7.28173 65.4838 7.63057 65.156 7.63057 64.7517C7.63057 64.3473 7.28173 64.0195 6.85142 64.0195C6.4211 64.0195 6.07227 64.3473 6.07227 64.7517C6.07227 65.156 6.4211 65.4838 6.85142 65.4838Z" fill="#191717"/>
<path d="M11.8529 67.5746C12.2832 67.5746 12.632 67.2468 12.632 66.8425C12.632 66.4381 12.2832 66.1104 11.8529 66.1104C11.4226 66.1104 11.0737 66.4381 11.0737 66.8425C11.0737 67.2468 11.4226 67.5746 11.8529 67.5746Z" fill="#191717"/>
<path d="M3.63413 59.2494H8.66092C9.08819 59.2494 9.44007 58.9188 9.44007 58.5173C9.44007 58.1158 9.08819 57.7852 8.66092 57.7852H3.63413C3.20686 57.7852 2.85498 58.1158 2.85498 58.5173C2.85498 58.9306 3.20686 59.2494 3.63413 59.2494V59.2494ZM10.0056 59.8635H8.07027C7.64299 59.8635 7.29112 60.1941 7.29112 60.5956C7.29112 60.9971 7.64299 61.3277 8.07027 61.3277H10.0056C10.4329 61.3277 10.7847 60.9971 10.7847 60.5956C10.7847 60.1941 10.4329 59.8635 10.0056 59.8635V59.8635ZM11.765 61.9418H6.96438C6.5371 61.9418 6.18523 62.2724 6.18523 62.6739C6.18523 63.0754 6.5371 63.4061 6.96438 63.4061H11.765C12.1922 63.4061 12.5441 63.0754 12.5441 62.6739C12.5441 62.2606 12.1922 61.9418 11.765 61.9418V61.9418ZM13.7631 64.0201H10.0056C9.57831 64.0201 9.22643 64.3508 9.22643 64.7523C9.22643 65.1537 9.57831 65.4844 10.0056 65.4844H13.7631C14.1904 65.4844 14.5423 65.1537 14.5423 64.7523C14.5423 64.3508 14.1904 64.0201 13.7631 64.0201ZM13.2856 66.8424C13.2856 67.2439 13.6374 67.5745 14.0647 67.5745H16.2011C16.6284 67.5745 16.9802 67.2439 16.9802 66.8424C16.9802 66.4409 16.6284 66.1102 16.2011 66.1102H14.0647C13.6374 66.1102 13.2856 66.4409 13.2856 66.8424ZM3.63413 55.081H6.43656C6.86384 55.081 7.21572 54.7503 7.21572 54.3488C7.21572 53.9473 6.86384 53.6167 6.43656 53.6167H3.63413C3.20686 53.6167 2.85498 53.9473 2.85498 54.3488C2.85498 54.7503 3.20686 55.081 3.63413 55.081ZM3.63413 57.1711H7.54246C7.96973 57.1711 8.32161 56.8405 8.32161 56.439C8.32161 56.0375 7.96973 55.7068 7.54246 55.7068H3.63413C3.20686 55.7068 2.85498 56.0375 2.85498 56.439C2.85498 56.8405 3.20686 57.1711 3.63413 57.1711ZM3.63413 50.9125H4.87826C5.30554 50.9125 5.65741 50.5819 5.65741 50.1804C5.65741 49.7789 5.30554 49.4483 4.87826 49.4483H3.63413C3.20686 49.4483 2.85498 49.7789 2.85498 50.1804C2.85498 50.5819 3.20686 50.9125 3.63413 50.9125ZM3.63413 52.9908H5.54431C5.97159 52.9908 6.32346 52.6602 6.32346 52.2587C6.32346 51.8572 5.97159 51.5266 5.54431 51.5266H3.63413C3.20686 51.5266 2.85498 51.8572 2.85498 52.2587C2.85498 52.672 3.20686 52.9908 3.63413 52.9908ZM41.9759 81.2607C41.9885 81.2489 41.9759 81.2489 41.9759 81.2371V81.2607ZM77.3142 14.6128C77.3268 14.6128 77.3268 14.6128 77.3142 14.6128C77.6661 14.6128 77.9803 14.3884 78.0683 14.0577C78.3447 13.0186 78.2316 12.1329 77.7038 11.4008C76.8618 10.2199 75.3161 9.99558 75.1402 9.97196C74.9463 9.94684 74.7494 9.9912 74.5888 10.0962C74.4281 10.2012 74.3154 10.3592 74.273 10.5388C73.984 11.7787 74.1474 12.7706 74.7757 13.5027C75.7057 14.5655 77.1634 14.6009 77.3142 14.6128V14.6128ZM76.4346 12.2274C76.5854 12.4518 76.6733 12.7116 76.6733 13.0186C76.4471 12.9359 76.1958 12.806 76.0198 12.5935C75.8188 12.3573 75.7182 12.0503 75.7182 11.6606C75.9696 11.7787 76.2461 11.9676 76.4346 12.2274ZM72.2623 4.05583C71.4203 2.87496 69.8746 2.6506 69.6987 2.62698C69.5048 2.60186 69.3079 2.64622 69.1473 2.75124C68.9866 2.85626 68.8739 3.01425 68.8315 3.1938C68.5425 4.43371 68.7059 5.42563 69.3342 6.15777C70.239 7.22055 71.6968 7.25597 71.8602 7.25597C72.2121 7.25597 72.5262 7.03161 72.6142 6.70096C72.9032 5.68542 72.7901 4.78797 72.2623 4.05583V4.05583ZM70.5658 5.2485C70.3647 5.01233 70.2642 4.7053 70.2642 4.31562C70.5281 4.43371 70.8046 4.62264 70.9805 4.88243C71.1313 5.1068 71.2193 5.36659 71.2193 5.67361C70.9931 5.59095 70.7417 5.46106 70.5658 5.2485ZM8.96253 9.97196C8.78659 9.99558 7.25342 10.2199 6.39886 11.4008C5.88362 12.1329 5.75795 13.0186 6.03442 14.0577C6.07833 14.215 6.17582 14.3543 6.31198 14.4545C6.44815 14.5548 6.61549 14.6103 6.78844 14.6128C6.95181 14.6128 8.40958 14.5773 9.3144 13.5146C9.94275 12.7824 10.1061 11.7787 9.81708 10.5506C9.78027 10.3698 9.67122 10.2091 9.51231 10.1015C9.35339 9.99392 9.15667 9.94756 8.96253 9.97196V9.97196ZM8.12054 12.5935C7.94494 12.7907 7.71428 12.9379 7.45449 13.0186C7.45449 12.7116 7.54246 12.44 7.69326 12.2274C7.88177 11.9676 8.15824 11.7787 8.40958 11.6606C8.40958 12.0503 8.30904 12.3573 8.12054 12.5935V12.5935ZM14.2909 2.62698C14.115 2.6506 12.5818 2.87496 11.7273 4.05583C11.212 4.78797 11.0863 5.67361 11.3628 6.71277C11.4067 6.86998 11.5042 7.00935 11.6404 7.10957C11.7765 7.2098 11.9439 7.26536 12.1168 7.26778C12.2802 7.26778 13.738 7.23235 14.6428 6.16958C15.2711 5.43744 15.4345 4.43371 15.1455 3.20561C15.0575 2.82773 14.6931 2.57975 14.2909 2.62698V2.62698ZM13.4364 5.2485C13.2608 5.44568 13.0301 5.5929 12.7703 5.67361C12.7703 5.36659 12.8583 5.09499 13.0091 4.88243C13.1976 4.62264 13.4741 4.43371 13.7254 4.31562C13.7254 4.7053 13.6374 5.01233 13.4364 5.2485V5.2485ZM66.4941 36.9665C66.5444 37.3444 66.8711 37.616 67.2607 37.616H67.3486C67.5536 37.5924 67.7401 37.4933 67.8674 37.3405C67.9946 37.1878 68.0521 36.9938 68.0273 36.8012C67.2481 30.4245 62.6109 25.9136 62.4098 25.7247C62.2641 25.5979 62.0721 25.5287 61.8735 25.5312C61.6749 25.5338 61.485 25.6079 61.343 25.7383C61.2009 25.8688 61.1177 26.0455 61.1104 26.232C61.1032 26.4184 61.1724 26.6004 61.3039 26.7402C61.3542 26.7875 65.7778 31.0976 66.4941 36.9665ZM16.7289 37.6042H16.8169C17.2065 37.6042 17.5458 37.3326 17.5835 36.9547C18.2998 31.0858 22.7234 26.7757 22.7611 26.7402C23.0627 26.4568 23.0501 25.9845 22.7485 25.7129C22.6766 25.645 22.5909 25.5914 22.4966 25.5551C22.4022 25.5189 22.3011 25.5008 22.1992 25.5019C22.0973 25.503 21.9966 25.5233 21.9032 25.5615C21.8097 25.5998 21.7254 25.6553 21.6552 25.7247C21.4541 25.9136 16.8294 30.4245 16.0377 36.8012C16 37.2027 16.3016 37.5569 16.7289 37.6042V37.6042Z" fill="#191717"/>
</svg>
