<svg width="84" height="84" viewBox="0 0 84 84" fill="none" xmlns="http://www.w3.org/2000/svg">
<path d="M79.8 0H4.2C1.92008 0 0 1.91994 0 4.19999V79.8C0 82.0798 1.91994 84 4.2 84H79.8C82.0801 84 84 82.0799 84 79.8V4.19999C84 1.91994 82.0801 0 79.8 0ZM30.84 60.5999H23.4V23.4H30.84V60.5999ZM60.7199 60.5999H38.2801V53.1599H60.7199V60.5999ZM60.7199 45.72H38.2801V38.2799H60.7199V45.72ZM60.7199 30.84H38.2801V23.4H60.7199V30.84Z" fill="url(#paint0_linear_781_19389)"/>
<defs>
<linearGradient id="paint0_linear_781_19389" x1="83.9392" y1="-0.0837731" x2="-0.0603413" y2="83.9155" gradientUnits="userSpaceOnUse">
<stop stop-color="#ED345E"/>
<stop offset="1" stop-color="#382C74"/>
</linearGradient>
</defs>
</svg>
