<svg width="189" height="118" viewBox="0 0 189 118" fill="none" xmlns="http://www.w3.org/2000/svg">
<g clip-path="url(#clip0_781_22160)">
<path opacity="0.3" d="M155.553 117.427C156.612 116.802 157.66 116.158 158.697 115.492C171.91 107.003 183.249 94.4968 186.993 79.2447C190.738 63.9926 185.378 46.0247 171.962 37.8622C160.297 30.7652 145.361 32.0945 132.224 35.8135C119.085 39.5313 106.43 45.4086 92.8478 46.8163C76.7618 48.4829 59.5158 43.9125 44.9072 50.849C28.6931 58.5472 21.3844 79.5857 26.6369 96.7496C29.0453 104.617 33.6443 111.547 39.5851 117.211L155.551 117.428L155.553 117.427Z" fill="#EBEBFF"/>
<path opacity="0.6" d="M54.6368 117.36L54.5883 117.329C53.5527 116.67 52.5271 115.991 51.5401 115.309C37.1369 105.343 27.3925 91.8866 24.1016 77.4199C20.2307 60.4042 26.3893 42.1712 38.7438 34.0697C48.3725 27.7555 61.3617 27.0237 77.3531 31.894C81.5115 33.1611 85.6849 34.6908 89.7213 36.1719C98.012 39.2126 106.584 42.3579 115.404 43.3387C120.863 43.9448 126.553 43.7482 132.057 43.5552C142.179 43.2017 152.644 42.8371 161.847 47.5431C176.976 55.2774 184.94 76.8412 179.601 95.6094C177.296 103.711 172.608 110.121 163.927 117.042L163.873 117.085H163.805L54.6368 117.361V117.36ZM58.2202 29.1134C50.7759 29.1134 44.336 30.8771 38.9616 34.4008C26.739 42.4151 20.6526 60.4714 24.4887 77.3328C27.7572 91.7012 37.4456 105.073 51.7666 114.983C52.7337 115.652 53.7369 116.318 54.7526 116.963L163.736 116.688C172.313 109.837 176.946 103.498 179.221 95.4986C184.511 76.9022 176.636 55.5475 161.666 47.8941C152.554 43.2353 142.141 43.6 132.071 43.9498C126.553 44.1427 120.849 44.3419 115.36 43.7307C106.492 42.745 97.8962 39.5922 89.5844 36.5428C85.5542 35.0642 81.3858 33.5357 77.2374 32.2724C70.3208 30.1652 63.9705 29.1134 58.2202 29.1134Z" fill="#9192FF"/>
<path d="M117.325 41.1328L98.9543 40.0176L74.9834 46.3517C66.577 48.5721 59.7525 54.7046 56.6533 62.826L41.675 102.049L71.1075 75.9683L79.214 117.03L134.197 116.853L134.02 59.8425L117.324 41.1328H117.325Z" fill="#3662E3"/>
<path d="M102.668 62.4194C99.3387 62.4194 96.2295 61.1225 94.1733 58.8311L94.5667 58.4776C96.7672 60.9296 100.246 62.1867 103.868 61.8319C107.75 61.4548 111.142 59.2841 113.176 55.875L113.63 56.1463C111.509 59.6998 107.97 61.9651 103.92 62.3584C103.501 62.3983 103.083 62.4194 102.669 62.4194H102.668Z" fill="#C5C5FF"/>
<path d="M104.955 55.2437C101.433 56.9464 97.1095 55.2649 95.3384 51.501L94.7409 50.2265L88.6819 37.353L84.9753 29.4705L102.882 20.8164L110.68 37.3853C113.884 44.1998 111.33 52.1619 104.955 55.2437Z" fill="#FFBC96"/>
<path d="M104.59 34.0273C103.014 41.7044 99.0763 46.9643 94.7411 50.2266L88.6821 37.3531L104.59 34.0273Z" fill="#1B1B43"/>
<path d="M106.69 24.4214C106.69 33.6916 101.463 40.0468 94.833 43.3228C88.0098 46.6933 80.8854 33.7414 77.4825 25.0823C73.9501 16.0946 83.6746 9.35352 91.8147 9.35352C99.9548 9.35352 106.69 15.1511 106.69 24.4214Z" fill="#FFBC96"/>
<path d="M107.058 19.1345C106.265 9.61782 104.331 0.622668 95.5153 2.92156C92.1672 -1.74841 78.1573 -1.66004 74.7208 9.44233C72.5041 16.6041 65.3809 20.1041 65.3809 20.1041C73.9279 24.5973 81.8066 22.9145 92.7845 14.5529C96.221 19.5751 106.002 19.9273 106.002 19.9273L107.06 19.1345H107.058Z" fill="#1B1B43"/>
<path d="M109.796 23.6115C110.181 20.6067 108.59 17.9266 106.241 17.6252C103.892 17.3239 101.675 19.5155 101.29 22.5203C100.905 25.5251 102.496 28.2052 104.845 28.5065C107.194 28.8078 109.411 26.6162 109.796 23.6115Z" fill="#FFBC96"/>
<path d="M106.396 20.795C105.827 21.2642 105.639 21.9002 105.646 22.5811C105.649 22.9184 105.703 23.2594 105.801 23.5842C105.904 23.9091 106.043 24.2165 106.278 24.4854L106.121 24.753C105.685 24.6098 105.361 24.2439 105.161 23.8568C104.957 23.4635 104.858 23.0254 104.858 22.5835C104.861 22.1429 104.96 21.6861 105.206 21.2966C105.444 20.9057 105.841 20.602 106.268 20.5137L106.397 20.795H106.396Z" fill="#1B1B43"/>
<path d="M91.6291 28.037C92.3658 27.9882 92.9186 27.2792 92.8639 26.4533C92.8092 25.6275 92.1677 24.9976 91.431 25.0464C90.6944 25.0952 90.1415 25.8042 90.1962 26.6301C90.2509 27.4559 90.8925 28.0858 91.6291 28.037Z" fill="#1B1B43"/>
<path d="M85.0084 30.4826C85.6328 30.241 85.9195 29.4776 85.6486 28.7776C85.3778 28.0775 84.652 27.7058 84.0276 27.9474C83.4032 28.1889 83.1165 28.9523 83.3874 29.6524C83.6582 30.3525 84.384 30.7242 85.0084 30.4826Z" fill="#1B1B43"/>
<path d="M95.1568 22.6687C95.1842 23.0882 92.9587 22.9525 92.0016 23.1554C91.1851 23.3284 89.9404 24.1237 89.3803 23.3296C88.875 22.6127 90.1458 21.8012 91.7203 21.6966C93.2948 21.5921 95.1294 22.2505 95.1568 22.67V22.6687Z" fill="#1B1B43"/>
<path d="M80.807 27.2746C81.0572 27.6181 82.1935 26.437 82.847 26.1333C83.4046 25.8744 84.5908 25.9005 84.3953 25.0044C84.2186 24.1966 83.0075 24.1704 82.0765 24.8488C81.1455 25.5271 80.5568 26.9311 80.807 27.2746Z" fill="#1B1B43"/>
<path d="M89.7212 36.7117C90.2303 36.0981 90.9584 35.7011 91.6952 35.4521C92.4408 35.2082 93.2062 35.1011 93.9804 35.1571L94.0377 35.4621C93.3357 35.7957 92.625 35.9811 91.9404 36.2027C91.2496 36.4167 90.6012 36.6706 89.9079 36.9594L89.7224 36.7117H89.7212Z" fill="#1B1B43"/>
<path d="M87.7161 30.0716C87.7546 30.6479 87.67 31.2602 87.3725 31.8216C87.2294 32.1004 87.0228 32.3531 86.8137 32.5634C86.6083 32.7738 86.4005 32.9505 86.3507 33.0762C86.3345 33.1397 86.3071 33.1895 86.3208 33.2853C86.3171 33.3426 86.3332 33.3463 86.3295 33.355C86.3307 33.3687 86.3532 33.3886 86.3668 33.4135C86.4652 33.5243 86.6979 33.6375 86.9307 33.7234C87.4111 33.8952 87.955 34.0097 88.4915 34.1367L88.484 34.4466C87.9065 34.525 87.3327 34.5213 86.7378 34.3918C86.4415 34.3184 86.1328 34.2325 85.8192 33.9599C85.747 33.879 85.6686 33.7919 85.6188 33.6786C85.5678 33.5566 85.5342 33.4284 85.5354 33.3438C85.508 33.1608 85.5454 32.9281 85.6362 32.7377C85.8416 32.3605 86.0992 32.1925 86.2884 32.0158C86.4863 31.844 86.6469 31.6697 86.7913 31.4718C87.0775 31.0748 87.2555 30.5744 87.4049 30.043L87.7136 30.0741L87.7161 30.0716Z" fill="#D28572"/>
<path opacity="0.2" d="M102.14 28.7363C102.163 26.8688 100.667 25.3363 98.7996 25.3135C96.932 25.2907 95.3996 26.7861 95.3768 28.6537C95.3539 30.5212 96.8494 32.0537 98.7169 32.0765C100.584 32.0993 102.117 30.6038 102.14 28.7363Z" fill="#FE5B52"/>
<path d="M147.953 60.2869C142.729 49.3003 131.949 42.0265 119.806 41.2859L117.327 41.1328L135.614 82.7766L155.632 75.346L147.953 60.2869Z" fill="#3662E3"/>
<path d="M84.0606 33.1452C83.8627 30.1058 84.3904 22.9676 82.5408 23.7605C80.6913 24.5533 80.2283 34.8616 80.2283 34.8616C80.2283 34.8616 79.9644 17.6791 77.9817 18.4719C75.9989 19.2648 75.9989 31.689 71.6376 44.906L47.1415 96.6403C44.1954 102.864 47.9069 110.195 54.6667 111.504C59.6254 112.464 64.5667 109.773 66.4524 105.087C72.7964 89.3217 84.4502 55.3002 85.5816 48.6748C86.5063 43.2556 86.2674 40.9119 85.9101 39.5191C85.3189 37.2165 84.2162 35.5175 84.0618 33.1452H84.0606Z" fill="#FFBC96"/>
<path d="M71.7908 43.7647C72.5401 41.726 73.0305 39.5963 73.4872 37.468C73.9366 35.3359 74.3149 33.1876 74.7033 31.0418L75.8521 24.5932C76.055 23.5191 76.2641 22.4449 76.5155 21.3758C76.6425 20.8406 76.7781 20.3078 76.9474 19.7764C77.0333 19.5113 77.1266 19.2461 77.2486 18.9823C77.3084 18.8503 77.3793 18.7184 77.4677 18.5865C77.5635 18.462 77.6656 18.3039 77.9232 18.223L77.9033 18.228C77.9792 18.2131 78.0614 18.2044 78.1385 18.2031C78.212 18.2143 78.2854 18.243 78.3551 18.2703C78.4671 18.3375 78.5729 18.4222 78.6314 18.5056C78.7758 18.6749 78.8555 18.8479 78.9351 19.0209C79.087 19.3656 79.1965 19.7129 79.2874 20.0614C79.4728 20.7584 79.6023 21.4592 79.7155 22.1599C79.9358 23.5639 80.0877 24.9728 80.2047 26.383C80.4337 29.2047 80.5557 32.0313 80.5283 34.8641L79.9271 34.8517C79.9931 33.2523 80.1138 31.6641 80.2943 30.0759C80.4872 28.4902 80.7088 26.9008 81.2079 25.345C81.3448 24.9579 81.4941 24.572 81.7244 24.2024C81.8451 24.0207 81.9808 23.8365 82.1824 23.6871C82.3729 23.5265 82.6703 23.4494 82.9417 23.4867C83.0052 23.5016 83.0649 23.524 83.1271 23.5452C83.1906 23.5726 83.2416 23.5713 83.3213 23.6423C83.3574 23.6709 83.3922 23.7033 83.4246 23.7356C83.4532 23.7668 83.4632 23.7916 83.4831 23.819C83.5142 23.8726 83.5578 23.9323 83.5765 23.9833C83.6698 24.1924 83.7296 24.3941 83.7806 24.5945C83.8839 24.9965 83.9436 25.3948 84.0021 25.7943C84.2087 27.3912 84.2635 28.9906 84.2498 30.5875C84.2448 31.3928 84.1938 32.1744 84.2635 32.9486C84.327 33.7253 84.4689 34.4957 84.6693 35.2537C84.8709 36.0117 85.1273 36.756 85.4061 37.4954C85.6924 38.2272 85.9787 39.0026 86.1392 39.7918C86.4803 41.3737 86.5176 42.9992 86.3707 44.5912C86.2226 46.1856 85.9114 47.7576 85.4957 49.2972L85.2667 49.2375C85.6513 47.7016 85.9301 46.1383 86.0471 44.565C86.1629 42.9943 86.0944 41.4061 85.7359 39.8826C85.5629 39.1147 85.2991 38.394 85.0003 37.6497C84.7128 36.9041 84.4465 36.1461 84.2349 35.3695C84.0233 34.5916 83.8714 33.795 83.8005 32.9872C83.7233 32.1769 83.7706 31.3666 83.7694 30.5838C83.7731 29.0043 83.7072 27.4186 83.4968 25.864C83.4383 25.4782 83.3773 25.0898 83.279 24.7227C83.2317 24.5397 83.1744 24.3592 83.1047 24.2061C83.0886 24.1626 83.0674 24.1451 83.0512 24.1115C83.0313 24.0705 83.0189 24.0667 83.0189 24.0667C83.0325 24.0568 82.9765 24.0468 82.9491 24.0356C82.9168 24.0256 82.8844 24.0095 82.8521 24.002C82.6181 23.9647 82.3629 24.1713 82.1737 24.4849C81.9845 24.7924 81.8451 25.1508 81.7207 25.513C81.2552 26.9904 81.0398 28.5699 80.8619 30.1357C80.6926 31.7064 80.583 33.2909 80.5283 34.8666L79.9271 34.8542C79.9532 32.045 79.8612 29.2283 79.6458 26.4253C79.5375 25.0239 79.3956 23.6249 79.1853 22.2408C79.0783 21.55 78.9538 20.8605 78.7808 20.1933C78.6961 19.8598 78.5928 19.5312 78.4622 19.23C78.3974 19.0831 78.3228 18.9325 78.2369 18.8342C78.1958 18.7707 78.1522 18.752 78.1211 18.7246C78.1074 18.7259 78.0975 18.7159 78.0875 18.7109C78.0776 18.7184 78.0713 18.7197 78.0601 18.7134L78.0402 18.7184C78.0303 18.7184 77.9444 18.7819 77.8846 18.8752C77.8212 18.9698 77.7602 19.0769 77.7079 19.1939C77.5996 19.4254 77.5087 19.6756 77.4253 19.9282C77.2598 20.436 77.1229 20.96 76.9947 21.4865C76.7408 22.5408 76.5255 23.6087 76.3176 24.6778L75.1314 31.1152C74.7406 33.2635 74.3137 35.4068 73.8283 37.5389C73.3341 39.6673 72.8064 41.7969 72.0136 43.8456L71.792 43.761L71.7908 43.7647Z" fill="#D28572"/>
<path d="M165.204 104.408C165.114 110.498 162.459 114.755 159.135 117.208L152.384 117.102L150.713 117.076H150.676L142.74 99.0111L142.724 98.9688L135.613 82.7808L155.629 75.3477L163.099 93.6827C164.633 97.7378 165.251 101.311 165.204 104.409V104.408Z" fill="#FFBC96"/>
<path d="M159.663 97.1152L107.118 102.994L100.281 100.784C97.1856 99.785 93.7964 100.4 91.2548 102.43C85.2929 107.192 75.6007 115.969 78.1124 116.675C82.3418 117.865 87.8656 115.638 92.8243 114.394C95.5638 113.705 98.4576 114.031 100.971 115.318L104.408 117.08L156.754 117.072L159.661 97.1152H159.663Z" fill="#FFBC96"/>
<path d="M79.3645 115.748C80.7822 114.919 82.2222 114.131 83.666 113.353C85.1061 112.568 86.5711 111.831 88.0236 111.068C88.7393 110.692 89.506 110.306 90.3063 110.029C91.1066 109.754 91.9331 109.553 92.772 109.461C93.6109 109.367 94.456 109.358 95.2912 109.433C96.1251 109.525 96.9503 109.685 97.7382 109.957L97.6573 110.255C96.8607 110.1 96.0604 109.994 95.2576 109.985C94.456 109.959 93.6557 110.014 92.8691 110.147C92.0837 110.279 91.3107 110.477 90.5664 110.757C89.8159 111.021 89.1239 111.396 88.3808 111.768C86.9096 112.493 85.4534 113.246 83.971 113.95C82.4936 114.662 81.0099 115.364 79.5051 116.023L79.3645 115.747V115.748Z" fill="#D28572"/>
<path d="M80.1287 113.122C81.0833 112.219 82.0803 111.37 83.0997 110.545C84.1141 109.715 85.1608 108.923 86.2325 108.162C87.3103 107.411 88.4007 106.674 89.5594 106.037C90.7232 105.425 91.9081 104.76 93.2984 104.629L93.3245 104.938C92.7234 105.096 92.1384 105.33 91.5795 105.655C91.0082 105.941 90.4606 106.288 89.9142 106.632C88.8214 107.322 87.7547 108.067 86.688 108.807C85.6201 109.549 84.5721 110.323 83.5079 111.076C82.4499 111.838 81.3957 112.61 80.3278 113.361L80.1299 113.122H80.1287Z" fill="#D28572"/>
<path d="M149.702 98.3851L142.653 98.5586L142.673 99.3512L149.722 99.1777L149.702 98.3851Z" fill="#D28572"/>
<path d="M130.735 72.2473L130.26 72.4805L135.377 82.9023L135.851 82.6691L130.735 72.2473Z" fill="#EBEBFF"/>
<path d="M81.5053 110.699H51.3708V117.043H81.5053V110.699Z" fill="#1B1B43"/>
<path d="M61.592 117.043H13.746L0 69.1973H47.846L61.592 117.043Z" fill="#EBEBFF"/>
<path d="M56.4666 99.5495L47.6967 69.3938H25.6414V68.998H47.9942L56.8475 99.4387L56.4666 99.5495Z" fill="#1B1B43"/>
</g>
<defs>
<clipPath id="clip0_781_22160">
<rect width="188.159" height="117.426" fill="white"/>
</clipPath>
</defs>
</svg>
