<svg width="105" height="18" viewBox="0 0 105 18" fill="none" xmlns="http://www.w3.org/2000/svg">
<path d="M0.837713 17H7.24929C11.1371 17 12.8931 15.0643 12.8931 12.4996C12.8931 9.91051 11.0799 8.44851 9.42188 8.35866V8.19531C10.9574 7.80327 12.2397 6.75781 12.2397 4.6669C12.2397 2.19212 10.5245 0.272727 6.96342 0.272727H0.837713V17ZM3.36151 14.8356V9.47763H7.09411C9.11967 9.47763 10.3857 10.7844 10.3857 12.3771C10.3857 13.782 9.43004 14.8356 7.00426 14.8356H3.36151ZM3.36151 7.50923V2.42081H6.80824C8.8093 2.42081 9.76491 3.47443 9.76491 4.86293C9.76491 6.48011 8.44176 7.50923 6.7429 7.50923H3.36151ZM34.4167 8.63636C34.4167 3.28658 31.215 0.0440335 26.8862 0.0440335C22.541 0.0440335 19.3475 3.28658 19.3475 8.63636C19.3475 13.978 22.541 17.2287 26.8862 17.2287C31.215 17.2287 34.4167 13.9862 34.4167 8.63636ZM31.9174 8.63636C31.9174 12.712 29.7612 14.9254 26.8862 14.9254C24.003 14.9254 21.8549 12.712 21.8549 8.63636C21.8549 4.56072 24.003 2.3473 26.8862 2.3473C29.7612 2.3473 31.9174 4.56072 31.9174 8.63636ZM40.0421 2.44531H45.253V17H47.7686V2.44531H52.9877V0.272727H40.0421V2.44531ZM62.3722 0.272727H59.8485V17H62.3722V0.272727ZM81.368 5.55717H83.9571C83.3936 2.2983 80.6084 0.0440335 76.9983 0.0440335C72.6695 0.0440335 69.5086 3.30291 69.5086 8.64453C69.5086 13.9371 72.5796 17.2287 77.1127 17.2287C81.172 17.2287 84.0715 14.5661 84.0715 10.3434V8.44034H77.4965V10.5231H81.6294C81.5722 13.2184 79.7916 14.9254 77.1127 14.9254C74.1642 14.9254 72.0161 12.6957 72.0161 8.6282C72.0161 4.57706 74.1805 2.3473 77.0146 2.3473C79.2362 2.3473 80.7391 3.57244 81.368 5.55717ZM92.1716 17L93.7071 12.5732H100.241L101.769 17H104.448L98.428 0.272727H95.5122L89.4926 17H92.1716ZM94.4422 10.4496L96.9088 3.31108H97.0395L99.5061 10.4496H94.4422Z" fill="#212121"/>
</svg>
